<?xml version="1.0" encoding="UTF-8" standalone="no"?><!DOCTYPE svg PUBLIC "-//W3C//DTD SVG 1.1//EN" "http://www.w3.org/Graphics/SVG/1.1/DTD/svg11.dtd"><svg width="256px" height="256px" viewBox="0 0 774 779" version="1.1" xmlns="http://www.w3.org/2000/svg" xmlns:xlink="http://www.w3.org/1999/xlink" xml:space="preserve" xmlns:serif="http://www.serif.com/" style="fill-rule:evenodd;clip-rule:evenodd;stroke-linejoin:round;stroke-miterlimit:2;"><g><path d="M472.209,255.451c7.238,-6.978 15.294,-13.519 25.094,-16c18.384,-4.653 28.737,-1.269 35.972,6.953c7.153,8.128 8.728,19.685 4.565,30.65c-1.262,3.325 -3.159,6.575 -5.418,9.322c-6.832,8.325 -15.382,13.51 -26.497,14.341c-5.157,0.384 -9.7,-0.541 -14.019,-3.006c-6.5,-3.716 -7.566,-6.941 -3.422,-14.485c4.197,-7.634 10.744,-11.837 4.45,-16.065c-8.119,-5.447 -13.663,6.071 -15.769,12.968c-2.384,7.803 -3.64,15.725 2.019,22.678c2.025,2.491 4.941,4.56 7.859,5.963c9.91,4.762 20.341,3.662 30.438,1.044c16.903,-4.388 28.081,-15.241 33.35,-32.01c0.716,-2.284 4.597,-8.303 5.115,-10.087c5.897,4.765 9.035,16.878 8.46,23.709c-1.478,17.491 -7.006,33.194 -20.491,45.541c-6.725,6.153 -14.54,9.303 -23.072,9.865c-22.659,1.488 -42.003,-6.446 -57.087,-23.4c-6.534,-7.346 -7.672,-17.175 -7.966,-26.709c-0.49,-16.047 4.803,-30.072 16.419,-41.272Zm-27.128,29.038c-3.747,14.093 2.872,39.54 13.431,49.453c15.859,14.887 34.5,23.778 58.038,24.809c10.093,1.881 29.712,-6.253 38.403,-15.381c30.225,-31.734 24.953,-71.875 -1.963,-93.928c-1.625,-1.328 -3.531,-2.763 -4.325,-4.578c-6.09,-13.95 -17.068,-14.803 -26.887,-17.916c-14.847,-4.7 -26.591,-0.159 -40.181,6.981c-15.688,8.247 -27.847,19.622 -32.747,37.363c-1.219,4.409 -2.597,8.778 -3.769,13.197Z" style="fill:#9178e6;fill-rule:nonzero;"/><path d="M287.525,505.886c-8.266,13.359 -20.472,16.922 -36.007,17.093c3.25,-2.953 5.157,-4.637 7.013,-6.387c6.684,-6.325 11.369,-14.078 11.506,-23.988c0.125,-9.084 -1.306,-17.909 -7.603,-24.875c-3.819,-4.225 -8.259,-6.384 -13.562,-6.072c-4.735,0.282 -9.65,-0.381 -14.007,2.532c-1.444,0.962 -2.981,1.803 -4.281,2.962c-6.694,5.953 -1.697,15.266 5.878,12.963c1.606,-0.488 3.066,-1.525 4.628,-2.213c6.038,-2.656 11.894,0.256 14.26,7.116c3.822,11.09 -4.063,21.981 -13.844,26.14c-8.866,3.775 -17.7,2.497 -26.259,-0.709c-2.929,-1.097 -5.794,-4.094 -7.529,-7.056c-4.487,-7.65 -6.828,-16.303 -7.687,-25.416c-1.016,-10.8 4.684,-18.375 10.628,-25.387c6.238,-7.357 14.034,-12.2 23.141,-14.594c6.631,-1.744 13.218,-2.931 20,-2.45c14.021,0.997 26.247,6.519 35.572,18.441c11.85,15.153 8.178,35.703 -1.847,51.9Zm20.978,-28.657c-1.281,-12.515 -3.744,-24.025 -13.213,-33.006c-10.059,-9.541 -20.459,-17.45 -33.872,-19.356c-13.943,-1.981 -27.45,0.472 -40.812,4.828c-5.906,1.925 -10.86,5.503 -14.547,10.597c-5.078,7.012 -9.669,14.509 -13.975,22.14c-3.059,5.425 -3.912,11.532 -2.122,17.954c6.388,22.95 7.034,30.9 11.572,35.678c6.288,6.622 12.703,13.193 21.059,16.681c7.435,3.1 14.888,4.653 23.066,4.062c13.1,-0.946 25.456,-4.518 37.616,-9.359c1.259,-0.834 2.556,-1.497 3.646,-2.456c13.119,-11.51 18.901,-27.378 21.726,-44.975c0.143,-0.894 -0.05,-1.863 -0.144,-2.788Z" style="fill:#9178e6;fill-rule:nonzero;"/><path d="M536.918,632.126c11.838,-3.975 24.732,-2.828 35.735,7.61c3.737,3.543 7.812,6.934 10.84,10.971c8.613,11.491 13.254,23.613 8.244,36.613c-2.934,7.622 -2.297,11.569 -9.369,15.447c-0.868,-3.556 -1.631,-6.428 -2.262,-9.313c-1.4,-6.412 -3.881,-12.228 -9.147,-17.171c-9.822,-9.222 -28.425,-23.86 -31.578,-11.807c-1.209,4.619 1.516,8.038 6.453,8.694c12.25,1.625 17.513,10.756 21.5,19.822c6.947,15.797 -3.644,24.172 -12.341,27.794c-4.043,1.681 -8.525,4.05 -12.95,4.296c-14.756,0.816 -30.718,-5.781 -38.421,-19.356c-1.222,-2.15 -2.225,-4.565 -2.616,-6.887c-2.75,-16.403 0.237,-31.022 7.972,-44.838c6.297,-11.247 16.287,-17.962 27.94,-21.875Zm-50.556,58.131c-0.412,11.516 4.081,21.957 13.922,30.372c10.6,9.066 22.7,13.038 35.806,13.741c3.047,0.166 6.091,0.262 8.872,0.381c2.188,2.425 6.078,8.944 14.453,5.356c11.975,-5.131 21.269,-14.037 29.428,-23.64c6.857,-8.072 11.566,-17.678 15.185,-27.781c4.693,-13.103 3.397,-25.991 -6.303,-38.525c-1.366,-1.766 -2.422,-3.732 -3.7,-5.56c-8.035,-11.481 -19.013,-19.512 -32.088,-23.328c-11.209,-3.272 -22.578,-3.472 -32.931,1.372c-26.941,12.603 -41.403,32.909 -42.644,67.612Z" style="fill:#9178e6;fill-rule:nonzero;"/><path d="M153.55,187.232c-6.813,10.047 -15.672,16.91 -27.572,18.407c-5.644,0.709 -11.216,1.081 -16.778,-0.128c-2.691,-0.585 -5.157,-1.81 -7.35,-3.438c-0.466,-0.35 -0.957,-0.662 -1.397,-1.05c-0.272,-0.362 -6.694,-5.434 -7.347,-15.291c-0.36,-5.44 4.619,-14.024 9.572,-15.625c1.759,-0.568 3.903,-0.2 5.672,0.366c6.478,2.078 14.712,-2.65 11.328,-8.737c-2.175,-3.894 -7.828,-5.372 -7.488,-5.219c-10.837,-2.991 -29.315,11.84 -29.656,25.959c-0.078,3.169 -0.569,6.944 -0.847,10.116c-3.534,-0.675 -4.6,-3.497 -6.344,-5.503c-4.462,-5.132 -4.559,-11.091 -3.475,-17.872c2.619,-16.35 17.782,-32.225 31.444,-34.697c6.134,-1.116 13.603,-1.494 19.713,-0.359c8.312,1.537 14.525,6.728 19.778,13.365c7.084,8.944 12.106,19.15 12.875,31.228c0.2,3.163 -0.347,5.85 -2.128,8.478Zm5.787,-33.643c-5.175,-9.103 -10.831,-17.366 -19.084,-23.247c-9.447,-6.728 -24.947,-9.569 -34.128,-8.097c-14.888,2.391 -27.725,10.288 -37.097,25.294c-7.26,11.625 -13.55,31.162 -6.556,42.247c11.337,17.965 23.975,17.421 34.087,21.787c10.159,4.391 20.822,4.581 31.772,3.009c14.378,-2.062 25.912,-9.487 34.187,-23.334c6.782,-11.341 0.844,-25.956 -3.181,-37.659Z" style="fill:#9178e6;fill-rule:nonzero;"/><path d="M93.331,446.545c-0.369,7.006 -3.563,12.844 -7.088,18.472c-0.603,0.965 -1.89,1.44 -3.381,2.519c-2.909,-14.219 -3.756,-18.197 -5.347,-22.144c-3.337,-8.291 -8.593,-15.025 -18.25,-17.431c-3.25,1.228 -7.518,1.031 -7.587,6.431c0.84,2.709 2.959,3.481 4.968,4.369c13.288,5.875 17.735,18.478 11.313,32.096c-0.109,0.229 -0.275,0.425 -0.053,0.088c-5.903,5.481 -12.106,8.675 -19.413,9.391c-14.681,1.44 -26.356,-4.366 -34.384,-17.3c-7.622,-12.282 -5.153,-25.872 3.222,-37.582c7.003,-9.797 17.016,-15.803 27.794,-19.05c8.603,-2.593 17.778,-2.275 25.728,4.138c5.612,4.528 11.94,8.212 15.328,15.184c2.45,5.044 4.681,10.222 6.737,15.463c0.616,1.575 0.504,3.572 0.413,5.356Zm8.465,-15.025c-4.728,-11.694 -12.353,-20.944 -18.971,-26.578c-8.144,-6.278 -14.282,-7.978 -20.882,-9.241c-7.471,-1.425 -14.509,-1.147 -21.378,1.794c-5.381,2.306 -10.843,4.766 -15.643,8.166c-5.616,3.981 -11.419,8.3 -15.638,13.79c-18.288,23.806 -7.328,53.11 13.538,65.45c7.668,4.531 16.465,6.447 25.4,4.513c6.159,-1.331 12.137,-3.722 18.325,-4.732c7.937,-1.293 14.562,-5.421 21.303,-9.49c14.29,-8.622 18.968,-31.247 13.946,-43.672Z" style="fill:#9178e6;fill-rule:nonzero;"/><path d="M112.534,604.82c5.409,-0.375 10.791,-1.225 16.172,-1.984c1.203,-0.169 2.341,-0.847 4.844,-1.804c-1.038,3.263 -1.078,4.65 -1.76,5.329c-8.375,8.368 -18.159,14.928 -29.256,17.587c-11.591,2.781 -22.916,1.188 -32.112,-8.928c-4.929,-5.419 -9.188,-10.619 -10.472,-18.225c-1.132,-6.709 -0.541,-12.931 2.981,-18.684c2.137,-3.485 4.444,-6.863 6.744,-10.238c4.922,-7.219 11.318,-12.106 19.675,-14.231c6.453,-1.641 12.718,-4.772 19.54,-3.178c5.022,1.172 10.041,2.668 14.803,4.697c4.735,2.012 8.138,5.79 9.629,11.165c0.415,1.494 0.975,2.944 1.521,4.391c3.35,8.828 1.172,16.74 -6.85,20.987c-6.096,3.225 -12.815,5.897 -19.778,0.435c-1.084,-4.872 -1.34,-10.685 -6.634,-10.088c-2.306,0.26 -3.919,1.981 -4.375,4.581c-1.709,9.738 5.841,18.847 15.328,18.188Zm35.872,-26.997c-1.11,-12.012 -5.919,-21.872 -16.441,-27.784c-4.34,-2.441 -9.034,-4.213 -13.312,-6.766c-4.813,-2.875 -9.791,-2.822 -15.05,-2.516c-8.275,0.485 -15.753,4.075 -23.657,5.941c-6.318,1.491 -11.412,4.691 -15.834,9.553c-1.537,2.331 -3.119,4.635 -4.603,7.003c-1.759,2.81 -3.084,6.025 -5.234,8.444c-7.563,8.516 -5.678,18.803 -3.628,30.225c2.628,14.641 11.793,23.194 24.128,29.159c6.943,3.363 14.134,4.113 21.547,4.541c12.115,0.7 22.115,-7.05 35.9,-16.437c9.124,-6.216 13.259,-15.563 16.228,-25.929c1.49,-5.206 0.425,-10.334 -0.044,-15.434Z" style="fill:#9178e6;fill-rule:nonzero;"/><path d="M452.5,739.87c-1.644,10.203 -7.997,17.503 -15.997,21.872c-17.538,9.587 -34.878,9.515 -50.944,-1.981c-4.072,-2.91 -7.466,-7.107 -10.7,-11.188c-1.322,-1.666 -1.791,-4.537 -1.944,-6.95c-0.675,-10.656 5.853,-22.056 15.235,-26.566c5.756,-2.765 11.706,-4.006 17.753,-2.006c7.372,2.447 11.122,7.094 10.09,16.022c-0.7,6.034 2.813,10.609 6.122,9.103c10.619,-4.837 2.25,-26.003 -7.159,-31.99c-4.841,-3.079 -10.269,-3.916 -15.75,-4.691c-2.344,-0.328 -5.031,0.559 -7.422,-1.822c2.85,-3.497 6.297,-5.884 9.834,-6.603c8.96,-1.816 17.966,-3.009 26.597,1.306c4.822,2.413 9.303,4.978 12.516,9.81c5.334,8.031 10.909,13.612 11.406,18.972c0.513,5.524 1.241,11.278 0.363,16.712Zm9.24,-15.134c-1.078,-12.507 -4.759,-12.288 -9.587,-21.841c-3.491,-6.916 -8.491,-12.091 -14.866,-15.475c-8.319,-4.416 -17.381,-6.3 -26.603,-7.263c-7.687,-0.796 -26.8,6.31 -33.975,16.732c-18.166,26.381 -22.872,46.131 -0.369,68.54c5.385,5.36 11.613,9.344 18.719,11.178c8.763,2.269 17.734,2.566 26.9,1.641c19.15,-1.931 25.416,-11.403 32.556,-18.597c9.219,-9.284 8.285,-22.709 7.225,-34.915Z" style="fill:#9178e6;fill-rule:nonzero;"/><path d="M361.112,21.604c7.91,-5.815 17.744,-7.518 27.534,-7.834c5.51,-0.178 11.05,0.447 16.572,0.825c9.15,0.625 13.75,4.884 14.904,13.962c0.431,3.388 0.256,6.85 0.637,10.247c0.969,8.613 -2.55,15.288 -8.753,20.953c-8.259,7.541 -16.794,10.85 -25.163,4.182c-3.5,-2.788 1.354,-9.363 0,-13.144c-1.768,-4.938 -6.75,-5.256 -10.709,-3.506c-3.769,1.668 -5.591,4.89 -6.053,8.943c-1.25,10.957 3.578,17.704 14.094,22.16c9.756,4.137 18.918,3.584 27.872,-1.21c3.528,-1.887 6.89,-4.681 9.346,-7.818c6.135,-7.828 12.025,-15.903 14.828,-25.438c4.082,-1.781 6.41,0.541 8.132,3.038c9.168,13.287 9.881,32.453 -4.075,43.637c-8.056,6.457 -15.825,13.328 -24.322,19.16c-35.416,24.296 -77.056,-16.128 -75.525,-46.213c0.85,-16.775 6.697,-31.659 20.681,-41.944Zm63.457,97.332c11.412,-8.816 34.871,-20.997 37.337,-39.7c1.387,-10.519 -0.353,-20.407 -3.316,-30.322c-3.247,-10.853 -9.843,-19.357 -18.4,-26.638c-3.362,-2.856 -10.106,-16.272 -21.515,-18.447c-10.047,-1.915 -20.169,-5.203 -30.678,-3.209c-8.813,1.675 -17.719,3.075 -26.35,5.438c-10.457,2.862 -18.313,9.546 -23.304,19.078c-6.984,13.346 -9.265,21.84 -9.718,32.231c-0.366,8.281 -1.107,16.431 -0.05,22.484c2.421,13.938 48.706,75.622 95.994,39.085Z" style="fill:#9178e6;fill-rule:nonzero;"/><path d="M312.25,693.595c-2.303,11.516 -10.557,17.691 -11.288,18.097c-11.316,6.262 -13.278,5.869 -21.534,-2.613c-3.735,-3.834 -6.613,-7.993 -8.141,-13.109c0.913,-4.109 6.835,-11.403 -0.225,-11.988c-6.262,-0.521 -9.29,5.869 -9.141,12.088c0.097,4.209 0.804,8.284 3.679,11.719c2.787,3.331 4.996,7.106 7.306,10.472c-1.894,3.078 -4.191,2.703 -6.328,2.153c-7.741,-2 -15.413,-4.172 -22.219,-8.057c-13.6,-7.765 -13.688,-24.925 -9.462,-39.937c2.437,-8.656 11.568,-20.684 27.368,-23.25c15.022,-2.441 26.507,-1.288 37.888,8.891c11.181,9.99 14.759,22.209 12.097,35.534Zm3.025,-36.016c-3.088,-5.553 -8.791,-8.85 -13.794,-12.747c-12.7,-9.884 -26.966,-10.153 -43.656,-6.343c-11.235,2.562 -19.997,8.684 -26.578,17.9c-9.829,13.759 -11.325,28.378 -9.319,43.3c0.406,3.015 1.793,5.95 3.284,8.615c5.816,10.419 15.338,16.828 27.275,20.357c4.994,1.478 10.2,2.446 15.256,3.778c11.763,3.1 23.003,0.559 33.604,-5.947c3.615,-2.222 7.19,-5.2 9.546,-8.535c4.71,-6.671 9.094,-13.653 9.732,-19.634c4.146,-16.119 1.24,-28.878 -5.35,-40.744Z" style="fill:#9178e6;fill-rule:nonzero;"/><path d="M315.859,178.051c5.266,-9.869 12.712,-16.262 23.756,-18.15c6.963,-1.194 13.569,-0.34 18.694,5.091c3.934,4.165 6.278,11.844 7.606,15.087c2.153,5.269 0.81,9.704 -4.065,12.703c-1.535,0.947 -3.269,1.582 -4.941,2.282c-7.844,3.284 -9.916,2.628 -14.656,-4.556c-0.281,-0.422 -0.719,-0.744 -1.085,-1.11c-0.459,-0.237 -0.896,-0.609 -1.378,-0.69c-3.215,-0.532 -6.422,-0.579 -8.144,2.818c-1.809,3.572 -0.093,6.663 2.251,9.216c4.915,5.366 11.218,7.597 18.29,6.156c4.791,-0.975 9.485,-2.747 14.003,-4.672c5.2,-2.212 9.041,-5.978 10.753,-11.628c0.422,-1.381 1.316,-2.619 2.432,-4.769c3.203,3.15 3.487,6.116 3.459,8.822c-0.138,12.6 -5.484,22.863 -16.019,29.51c-6.509,4.106 -14.459,4.3 -21.893,2.125c-5.685,-1.663 -11.266,-3.966 -16.554,-6.653c-15.781,-8.016 -21.471,-24.779 -12.509,-41.582Zm13.531,52.272c7.1,3.569 14.744,4.303 22.4,5.697c14.641,2.666 24.66,-4.009 32.578,-14.806c5.772,-7.872 8.472,-17.153 8.313,-26.938c0.775,-11.565 -3.869,-19.487 -14.563,-24.134c-3.178,-1.381 -6.168,-4.028 -8.29,-6.822c-3.888,-5.109 -8.878,-8.625 -14.21,-11.853c-5.084,-3.072 -10.781,-4.325 -16.393,-2.966c-5.982,1.447 -11.785,3.866 -17.422,6.403c-5.382,2.419 -9.144,6.975 -11.588,12.178c-2.853,6.069 -5.447,12.366 -7.193,18.819c-2.166,8.003 -1.357,16.141 3.071,23.31c5.688,9.212 13.547,16.206 23.297,21.112Z" style="fill:#9178e6;fill-rule:nonzero;"/><path d="M439.034,573.126c14.219,8.591 9.122,30.45 -0.044,38.063c-15.256,12.675 -32.272,14.747 -50.175,7.29c-8.54,-3.556 -14.962,-10.097 -17.522,-19.618c-1.103,-4.119 -1.028,-7.972 0.085,-12.182c1.753,-6.637 3.965,-12.843 8.862,-17.828c1.778,-1.809 3.366,-3.915 6.207,-4.125c4.856,4.257 -1.626,9.669 6.715,24.356c5.469,9.629 13.466,10.35 23.572,7.838c4.019,-1 7.203,-6.734 1.375,-9.934c-1.559,-0.86 -3.753,0.409 -5.737,0.615c-7.619,0.785 -13.035,-2.778 -15.288,-10.05c-1.7,-5.484 0.897,-11.156 6.153,-13.337c0.95,-0.394 1.972,-0.757 2.985,-0.847c10.771,-0.972 21.209,-0.453 29.937,7.156c0.975,0.85 1.791,1.947 2.875,2.603Zm-26.725,-23.103c-6.984,0 -13.928,1.316 -20.903,1.522c-12.863,0.375 -23.028,11.528 -25.444,20.772c-0.919,3.509 -2.109,6.95 -2.991,10.469c-3.175,12.662 -1.428,24.712 7.701,34.128c9.762,10.065 21.531,17.112 36.506,15.559c12.706,0.656 24.04,-3.081 34.315,-10.284c1.466,-1.028 2.9,-2.169 4.103,-3.485c6.397,-7 11.857,-14.462 11.288,-24.672c-0.069,-1.206 2.444,-6.181 -2.003,-16.603c-3.763,-8.822 -11.4,-14.072 -18.794,-19.006c-5.678,-3.784 -14.256,-8.4 -23.778,-8.4Z" style="fill:#9178e6;fill-rule:nonzero;"/><path d="M206.453,330.082c-5.838,7.088 -12.797,8.625 -20.753,4.566c-1.275,-0.65 -2.553,-1.291 -3.841,-1.906c-7.094,-3.388 -8.794,-9.428 -4.766,-16.9c0.832,-1.538 4.754,-4.35 2.188,-7.566c-4.113,-5.153 -9.334,-1.487 -12.006,3.556c-3.622,6.838 -2.597,13.463 0.834,19.863c1.181,2.203 2.959,4.006 4.344,6.091c1.056,1.593 1.925,3.337 2.9,5.056c-5.713,3.225 -13.035,2.212 -17.869,-2.444c-2.641,-2.541 -5.169,-5.303 -7.388,-8.291c-7.253,-9.768 -6.862,-23.684 0.404,-33.606c6.834,-9.328 15.987,-13.147 26.318,-14.297c6.144,-0.684 12.141,0.688 18.019,2.578c3.938,1.266 7.284,3.785 9.741,7.319c2.84,4.091 5.59,8.35 7.74,12.91c5.297,11.231 -1.228,17.456 -5.865,23.071Zm6.284,-39.946c-4.575,-8.491 -13.29,-10.469 -21.403,-13.553c-10.447,-3.972 -20.738,-2.188 -30.853,1.368c-3.503,1.231 -7.228,2.953 -9.869,5.635c-4.444,4.512 -8.919,9.45 -11.894,15.159c-4.012,7.709 -6.018,16.75 -3.15,25.447c2.707,8.212 6.466,16.19 13.06,21.728c7.672,6.447 16.275,11.009 26.019,9.456c9.671,-1.54 19.481,-3.315 28.487,-9.037c11.447,-3.513 16.947,-13.066 19.044,-25.841c2.459,-14.997 -2.841,-18.116 -9.441,-30.362Z" style="fill:#9178e6;fill-rule:nonzero;"/><path d="M568.768,506.395c-14.19,2.694 -26.378,0.472 -33.518,-12.694c-4.666,-8.603 -7.66,-17.434 -7.419,-26.919c0.203,-7.987 -1.822,-16.043 1.075,-23.94c2.681,-7.306 9.762,-15.556 23.269,-15.441c11.043,0.094 22.2,3.485 24.253,12.3c1.262,5.416 -0.022,13.753 -2.063,19.019c-2.415,6.237 -5.894,8.072 -14.194,7.822c-1.577,-0.047 -3.615,-2.294 -6.046,-0.678c-2.347,1.559 -2.041,4.537 -1.516,5.918c0.562,1.491 2.522,3.013 4.344,3.732c6.203,2.447 16.334,0.412 20.884,-4.06c4.95,-4.865 8.228,-10.415 9.769,-16.647c0.416,-1.675 0.687,-6.256 1.356,-7.874c3.938,0.643 8.691,4.956 9.938,6.999c2.822,4.632 3.384,10.672 2.822,16.829c-1.569,17.147 -14.029,32.037 -32.954,35.634Zm36.222,-63.094c-1.35,-3.234 -3.3,-6.003 -6.015,-8.687c-11.816,-11.682 -22.457,-16.432 -40.25,-18.86c-4.282,-0.584 -13.013,-0.578 -16.81,1.285c-19.115,9.397 -25.194,23.953 -24.997,41.04c0.047,4.138 0.782,8.269 0.9,12.413c0.663,23.231 9.51,28.769 13.06,35.131c3.5,6.281 9.875,9.331 17.675,10.703c17.744,3.116 32.637,-1.272 47.525,-13.615c8.659,-6.694 12.787,-13.322 15.15,-26.363c1.353,-7.469 1.937,-13.459 -6.238,-33.047Z" style="fill:#9178e6;fill-rule:nonzero;"/><path d="M281.484,334.307c5.481,-14.987 20.788,-22.528 32.922,-21.134c2.053,0.234 4.081,0.791 6.137,0.9c14.682,0.8 17.913,20.481 10.991,29.825c-3.144,4.238 -7.872,5.775 -12.822,6.5c-2.431,0.356 -4.581,-0.672 -5.984,-2.844c-0.985,-1.518 -1.71,-3.265 -2.922,-4.565c-3.063,-3.288 -7.881,-2.066 -9.191,2.193c-1.668,5.435 0.3,10.585 5.347,13.104c6.263,3.131 12.575,3.95 19.463,1.237c5.665,-2.228 10.881,-4.753 14.943,-9.375c0.653,-0.737 1.604,-1.216 2.735,-2.053c2.825,2.253 2.606,4.678 1.969,6.881c-3.941,13.631 -10.547,21.635 -25.1,22.241c-20.216,0.84 -49.841,-11.878 -38.488,-42.91Zm26.259,51.504c2.304,0.337 4.635,0.528 6.932,0.918c22.287,3.772 42.631,-16.784 41.022,-32.681c0.009,-11.753 -1.391,-21.244 -8.304,-29.281c-2.143,-2.494 -3.662,-5.663 -4.931,-8.747c-4.012,-9.747 -18.175,-12.394 -28.69,-13.597c-19.407,-2.222 -41.788,17.734 -43.166,35.075c-2.506,31.453 17.278,45.369 37.137,48.313Z" style="fill:#9178e6;fill-rule:nonzero;"/><path d="M710.128,578.076c-0.806,0.738 -1.56,1.682 -2.563,2.063c-8.197,3.134 -16.034,7.25 -25.075,8.212c-7.794,0.831 -14.812,-1.659 -21.443,-4.928c-11.822,-5.825 -16.944,-15.781 -19.819,-26.978c-0.16,-0.622 0.484,-1.409 1.247,-3.425c3.262,1.112 5.884,1.978 8.481,2.909c10.841,3.869 21.5,3.275 31.756,-1.506c2.925,-1.362 5.275,-3.716 7.688,-5.472c-3.557,-7.7 -4.738,-8.237 -11.5,-4.822c-5.419,2.732 -10.853,4.713 -17.257,3.622c-7.728,-1.309 -12.703,-6.597 -10.806,-13.353c3.034,-10.812 9.819,-19.375 22.147,-23.097c12.231,-3.7 26.806,1.672 33.309,12.275c7.035,11.472 12.56,23.391 10.607,37c1.762,7.088 -1.425,12.635 -6.772,17.5Zm12.719,-44.562c-3.741,-11.275 -10.094,-21.347 -21.422,-28.282c-11.847,-7.253 -24.36,-7.7 -36.325,-0.446c-7.166,4.346 -14.103,9.062 -18.719,16.55c-6.966,4.165 -8.135,11.768 -10.853,18.471c-3.703,9.122 -5.669,18.46 -1.413,28.066c3.763,8.497 7.357,16.984 16.882,21.834c3.756,1.913 7.303,4.272 11.265,5.722c6.416,2.347 13.072,3.766 20.222,2.685c9.788,-1.478 18.688,-5.247 27.684,-8.603c4.982,-1.86 9.028,-5.522 11.3,-10.313c3.719,-7.834 5.822,-9.281 6.507,-18.225c0.725,-9.497 -2.191,-18.591 -5.128,-27.459Z" style="fill:#9178e6;fill-rule:nonzero;"/><path d="M693.593,268.598c4.625,-4.862 10.094,-7.347 16.325,-7.99c12.047,-1.247 23.16,1.249 32.472,9.687c5.075,4.603 8.16,9.95 7.822,17.013c-0.162,3.359 0.119,6.749 -0.1,10.106c-0.822,12.65 -8.515,24 -20.997,25.975c-5.79,0.915 -15.659,0.15 -19.934,-3.181c11.275,-6.682 12.787,-15.716 15.237,-24.66c1.263,-4.591 0.882,-8.641 -2.543,-12.231c-1.407,-1.478 -1.938,-3.931 -3.632,-4.756c-5.29,-2.585 -7.537,1.834 -6.387,6.562c0.303,1.244 0.975,2.4 1.397,3.622c2.8,8.103 -1.96,17.203 -10.25,19.625c-8.36,2.444 -15.881,-2.394 -17.147,-10.922c-1.6,-10.756 -0.225,-20.472 7.737,-28.85Zm-19.662,18.05c-0.178,9.463 1.934,21.681 5.29,25.541c8.894,10.212 17.713,17.018 35.419,21.003c6.947,1.562 18.822,-1.216 24.866,-3.844c9.506,-4.128 15.712,-11.241 19.337,-21.781c3.113,-9.041 1.869,-23.203 1.107,-26.163c-3.2,-12.456 -12.153,-20.062 -22.772,-25.987c-6.5,-3.625 -13.928,-3.338 -21.075,-4.391c-9.36,-1.384 -17.435,1.45 -25.138,5.938c-2.568,1.5 -4.831,3.965 -6.512,6.475c-4.866,7.25 -10.356,14.434 -10.522,23.209Z" style="fill:#9178e6;fill-rule:nonzero;"/><path d="M201.603,63.201c5.162,-8.472 11.297,-15.644 21,-19.015c7.693,-2.672 15.715,-3.685 23.659,-2.694c14.038,1.75 22.6,10.7 27.31,23.49c2.734,7.426 2.778,14.772 -0.416,22.532c-4.209,10.231 -12.338,15.087 -17.831,19.45c-7.216,-0.666 -16.672,-7.935 -14.51,-18.041c1.597,-7.475 6.835,-11.303 -1.618,-13.356c-10.001,-2.428 -13.916,13.253 -10.15,22.553c1.028,2.537 2.656,4.828 3.953,7.263c1.125,2.115 2.168,4.271 3.412,6.731c-7.653,2.39 -14.337,0.637 -20.615,-2.094c-19.266,-8.378 -25.222,-28.725 -14.194,-46.819Zm-0.088,49.269c9.585,7.506 20.603,12.809 34.81,11.706c20.222,-1.572 33.128,-13.54 38.34,-18.456c5.569,-5.247 6.244,-12.669 8.388,-19.472c2.072,-6.578 1.941,-13.078 0.325,-19.597c-2.016,-8.118 -5.4,-15.697 -10.553,-22.3c-8.025,-10.287 -18.441,-15.481 -31.729,-14.047c-3.015,0.325 -6.043,0.563 -9.071,0.804c-15.31,1.203 -27.307,7.896 -35.325,21.256c-1.422,2.365 -3.031,4.622 -4.51,6.953c-12.015,18.956 -4.269,42.5 9.325,53.153Z" style="fill:#9178e6;fill-rule:nonzero;"/><path d="M534.109,135.736c7.197,4.262 17.066,2.978 23.038,-2.666c4.49,-4.247 5.787,-10.006 3.312,-14.744c-2.603,-4.987 -7.016,-7.309 -11.612,-4.187c-3.957,2.681 2.649,6.015 -1.147,12.503c-1.085,1.859 -3.778,1.409 -5.25,1.147c-6.172,-1.11 -10.935,-4.628 -14.313,-9.822c-3.494,-5.366 -2.85,-9.982 1.591,-14.75c4.456,-4.788 9.094,-8.81 16.065,-10.056c14.475,-2.582 24.491,3.94 32.66,14.734c3.662,4.841 5.559,10.519 6.297,16.531c1.243,10.135 -2.644,18.166 -10.394,24.453c-2.203,1.785 -4.394,3.825 -7.072,4.791c-19.1,6.872 -36.45,-7.594 -42.484,-15.259c-1.635,-2.078 -4.094,-7.982 -3.416,-11.369c4.891,3.725 9.125,6.562 12.725,8.694Zm7.147,27.44c3.05,1.678 11.312,3.181 14.822,3.769c12.831,2.15 31.115,-12.741 33.787,-21.106c3.963,-12.366 5.619,-16.257 4.128,-24.144c-1.712,-9.047 -5.684,-17.431 -11.234,-24.456c-10.353,-13.11 -23.228,-18.969 -41.297,-13.985c-9.422,2.597 -17.425,7.632 -23.537,15.622c-7.303,9.544 -10.016,19.806 -5.841,31.297c6.372,17.541 12.528,23.844 29.172,33.003Z" style="fill:#9178e6;fill-rule:nonzero;"/><path d="M446.221,447.32c-1.965,6.156 -5.231,11.722 -10.453,16.05c-9.218,7.641 -19.131,8.653 -29.634,3.519c-4.131,-2.019 -8.119,-4.61 -11.619,-7.591c-11.512,-9.809 -9.59,-28.572 3.6,-37.512c8.025,-5.435 22.435,-4.697 27.247,3.787c2.516,4.434 5.325,13.541 -0.547,16.547c-1.381,0.706 -3.287,0.644 -5.047,0.994c-1.99,0.393 -3.353,1.518 -3.446,3.6c-0.094,2.009 0.993,3.468 2.853,4.209c4.925,1.956 10.24,2.266 14.518,-1.844c6.463,-6.215 2.528,-19.412 -1.218,-27.234c4.893,-1.553 8.69,1.906 11.293,5.194c4.535,5.725 4.603,13.547 2.453,20.281Zm-14.915,-38.675c-10.878,-3.013 -21.825,-3.775 -32.203,-0.147c-12.166,4.256 -15.641,14.647 -17.581,18.291c-4.825,9.065 -4.835,18.197 -0.338,27.525c4.206,8.728 10.887,14.625 18.841,19.99c14.878,10.041 37.946,4.041 46.875,-8.387c5,-6.96 11.209,-14.035 7.959,-32.491c-2.353,-13.353 -10.453,-21.153 -23.553,-24.781Z" style="fill:#9178e6;fill-rule:nonzero;"/><path d="M747.572,455.22c-1.444,0.537 -3.203,0.237 -5.147,0.341c1.406,-3.375 2.762,-6.144 3.693,-9.05c0.582,-1.819 0.557,-3.841 0.735,-5.772c0.306,-3.347 -1.006,-6.222 -2.91,-8.807c-1.396,-1.893 -3.384,-2.775 -5.775,-2.04c-4.528,1.387 -1.622,7.553 -1.647,12.612c-0.015,3.344 -1.328,4.813 -4.45,5.847c-5.193,1.722 -11.218,-0.209 -14.296,-4.581c-7.607,-10.806 -3.422,-27.228 8.568,-32.844c6.525,-3.056 13.303,-4.156 20.56,-2.134c7.956,2.219 13.297,6.684 15.287,14.859c0.288,1.175 0.853,2.278 1.194,3.444c4.028,13.787 -5.653,24.353 -15.812,28.125Zm-21.032,-54.206c-12.412,4.931 -22.762,17.043 -21.878,29.884c0.431,6.241 2.3,12.406 3.803,18.538c0.375,1.531 1.625,3.071 2.878,4.128c8.497,7.178 17.532,13.215 30.357,12.644c4.847,0.703 9.897,-1.232 15.028,-3.901c21.425,-11.143 20.581,-39.184 8.834,-52.034c-10.734,-11.737 -25.059,-14.806 -39.022,-9.259Z" style="fill:#9178e6;fill-rule:nonzero;"/><path d="M22,302.667c-3.31,-6.813 -2.666,-13.082 1.831,-18.978c8.737,-11.466 23.909,-17.697 39.534,-10.944c9.425,4.078 10.791,9.584 9.938,16.472c-1.063,8.603 -0.332,12.975 -6.313,18.597c-3.437,3.231 -10.759,5.987 -16.743,5.875c-3.135,-7.16 -2.035,-12.966 2.631,-17.878c3.909,-4.122 5.537,-5.091 1.934,-9.294c-2.15,-2.506 -5.519,-0.863 -7.915,0.994c-12.972,10.05 -4.929,18.225 -7.244,27.49c-7.269,-0.644 -14.635,-6.125 -17.653,-12.334Zm41.406,19.925c16.694,-8.016 19.916,-20.263 19.797,-37.163c-0.072,-10.647 -6.744,-19.381 -17.047,-22.437c-9.503,-2.813 -17.35,-6.256 -29.466,-1.775c-7.162,2.653 -12.868,7.381 -18.697,12.256c-7.015,5.872 -8.922,13.213 -8.368,21.438c0.4,5.953 2.14,12.209 6.515,16.325c5.585,5.253 11.269,10.831 18.932,13.212c1.612,0.5 21.284,1.528 28.334,-1.856Z" style="fill:#9178e6;fill-rule:nonzero;"/><path d="M646.756,146.176c7.472,-5.359 15.637,-5.487 23.819,-1.472c1.746,0.86 3.284,2.191 4.828,3.419c7.1,5.631 9.037,13.047 5.981,21.856c-1.819,5.25 -4.269,9.938 -8.197,13.891c-2.093,2.106 -4.256,3.156 -8.078,1.713c0.738,-2.069 1.166,-3.441 1.716,-4.763c0.662,-1.597 1.606,-3.091 2.122,-4.728c2.662,-8.481 -2.232,-21.759 -11.05,-16.788c-1.322,0.747 -1.344,2.938 -1.385,4.454c-0.034,1.39 0.828,2.803 1.272,4.212c1.516,4.791 0.994,10.091 -2.125,12.388c-3.231,2.387 -8.253,2.193 -11.394,-0.144c-2.365,-1.757 -5.2,-5.744 -6.918,-8.841c-4.825,-8.703 0.609,-18.887 9.409,-25.197Zm-10.328,39.566c9.031,6.931 19.553,10.397 30.881,11.331c3.594,0.297 6.653,-0.966 9.641,-3.059c5.884,-4.122 10.053,-9.691 12.762,-16.053c3.006,-7.06 4.553,-14.504 2.235,-22.379c-3.163,-10.743 -11.147,-16.537 -20.557,-20.871c-3.062,-1.413 -6.497,-2.219 -8.497,-2.41c-13.337,-1.256 -23.947,4.413 -30.2,15.528c-1.906,3.394 -3.6,7.175 -4.234,10.972c-1.7,10.138 -1.016,20.047 7.969,26.941Z" style="fill:#9178e6;fill-rule:nonzero;"/><path d="M169.759,659.895c1.897,1.025 3.294,2.219 3.284,4.962c-5.706,3.004 -16.812,2.054 -17.675,8.663c-0.146,1.106 0.75,2.572 1.678,3.781c1.969,2.556 3.982,2.988 7.616,1.903c1.269,-0.378 2.388,-1.1 3.657,-1.478c4.296,-1.284 9.643,-2.744 10.056,0.969c0.603,5.416 -0.753,13.856 -7.522,17.6c-2.016,1.119 -3.853,2.503 -5.997,3.4c-8.897,3.722 -16.481,2.231 -21.822,-4.456c-7.316,-9.157 -7.397,-19.003 -2.641,-29.06c0.838,-1.772 2.619,-3.403 4.385,-4.731c6.322,-4.75 17.934,-5.366 24.981,-1.553Zm-20.569,-9.647c-8.322,1.756 -15.072,5.947 -18.809,11.96c-4.038,6.493 -6.291,13.781 -4.484,21.187c1.146,4.706 2.64,9.403 4.634,13.903c2.594,5.844 8.069,9.791 14.95,12.222c9.378,3.312 18.228,2.297 26.984,-2.453c11.728,-6.36 18.206,-17.113 16.213,-28.316c-0.994,-5.575 0.487,-10.293 -1.5,-14.365c-5.1,-10.457 -21.21,-16.219 -26.71,-15.6c-3.772,0.421 -7.606,0.687 -11.278,1.462Z" style="fill:#9178e6;fill-rule:nonzero;"/></g></svg>
